<svg xmlns="http://www.w3.org/2000/svg" viewBox="0 0 512.002 512.002" style="enable-background:new 0 0 512.002 512.002" xml:space="preserve"><circle style="fill:#e6f3ff" cx="256.001" cy="256" r="256"/><path style="fill:#cfdbe6" d="M512.001 256c0-28.162-4.561-55.256-12.962-80.601l-86.938-87.064L166.07 221.203l-53.458 37.626 89.359 88.697-89.547 36.897 127.329 127.052c5.373.336 10.786.527 16.246.527C397.385 512 512.001 397.384 512.001 256z"/><path style="fill:#324a5e" d="M395.586 382.592c-25.678 0-46.494-20.816-46.494-46.494v-12.769c0-18.048 14.631-32.678 32.678-32.678h15.672c11.38 0 20.606 9.225 20.606 20.606v48.873c0 12.404-10.056 22.462-22.462 22.462z"/><path style="fill:#2b3b4e" d="M397.444 290.651h-11.142v91.012c3 .609 6.104.929 9.285.929 12.405 0 22.462-10.057 22.462-22.462v-48.873c-.001-11.382-9.226-20.606-20.605-20.606z"/><path style="fill:#fd8469" d="M381.484 290.651h9.752v29.255h-9.752z"/><path style="fill:#fc6f58" d="M386.294 290.651h4.932v29.255h-4.932z"/><path style="fill:#fd8469" d="M357.799 332.907a7.778 7.778 0 0 0-7.778-7.778h-.929V336.1a46.343 46.343 0 0 0 3.737 18.284h4.968v-21.476h.002z"/><path style="fill:#324a5e" d="M386.357 315.202a2.786 2.786 0 0 1-2.786-2.786v-9.056a2.786 2.786 0 0 1 5.572 0v9.056a2.786 2.786 0 0 1-2.786 2.786z"/><path style="fill:#2b3b4e" d="M386.357 300.577c-.019 0-.036.005-.055.005v14.615c.019 0 .036.005.055.005a2.786 2.786 0 0 0 2.786-2.786v-9.056a2.785 2.785 0 0 0-2.786-2.783z"/><path style="fill:#324a5e" d="M224.919 256.759h74.904v34.806h-74.904z"/><path style="fill:#2b3b4e" d="M262.896 256.759h36.912v34.806h-36.912z"/><path style="fill:#2b3b4e" d="M405.341 261.668H119.383c-5.273 0-9.547-4.275-9.547-9.547V95.087c0-5.273 4.275-9.547 9.547-9.547h285.958c5.273 0 9.547 4.275 9.547 9.547v157.032c0 5.274-4.275 9.549-9.547 9.549z"/><path style="fill:#1f2e3d" d="M405.341 85.54H262.898v176.128h142.443a9.547 9.547 0 0 0 9.547-9.547V95.087c0-5.272-4.275-9.547-9.547-9.547z"/><path style="fill:#324a5e" d="M121.398 95.539h281.945v156.117H121.398z"/><path style="fill:#2b3b4e" d="M262.896 95.539h140.429v156.117H262.896zm40.023 207.362h-81.115a9.376 9.376 0 0 1-9.375-9.375v-6.216a9.376 9.376 0 0 1 9.375-9.375h81.115a9.376 9.376 0 0 1 9.375 9.375v6.216c-.001 5.177-4.198 9.375-9.375 9.375z"/><path style="fill:#1f2e3d" d="M302.919 277.933h-40.02v24.966h40.02a9.376 9.376 0 0 0 9.375-9.375v-6.216c-.001-5.177-4.198-9.375-9.375-9.375z"/><path style="fill:#324a5e" d="M317.868 387.16H119.143c-5.342 0-9.675-4.332-9.675-9.675v-53.343c0-5.342 4.332-9.675 9.675-9.675h198.725c5.342 0 9.675 4.332 9.675 9.675v53.343a9.674 9.674 0 0 1-9.675 9.675z"/><path style="fill:#2b3b4e" d="M317.868 314.47h-99.29v72.692h99.29c5.342 0 9.675-4.332 9.675-9.675v-53.343a9.673 9.673 0 0 0-9.675-9.674z"/><path style="fill:#405a6b" d="M121.243 320.319h10.983v10.983h-10.983zm16.688 0h10.983v10.983h-10.983zm16.687 0h10.983v10.983h-10.983zm16.687 0h10.983v10.983h-10.983zm16.688 0h10.983v10.983h-10.983zm16.67 0h10.983v10.983h-10.983z"/><path style="fill:#38505e" d="M221.368 320.319h10.983v10.983h-10.983zm16.687 0h10.983v10.983h-10.983zm16.67 0h10.983v10.983h-10.983zm16.688 0h10.983v10.983h-10.983zm16.687 0h10.983v10.983H288.1zm16.687 0h10.983v10.983h-10.983z"/><path style="fill:#405a6b" d="M121.243 335.748h10.983v10.983h-10.983zm16.688 0h10.983v10.983h-10.983zm16.687 0h10.983v10.983h-10.983zm16.687 0h10.983v10.983h-10.983zm16.688 0h10.983v10.983h-10.983zm16.67 0h10.983v10.983h-10.983z"/><path style="fill:#38505e" d="M221.368 335.748h10.983v10.983h-10.983zm16.687 0h10.983v10.983h-10.983zm16.67 0h10.983v10.983h-10.983zm16.688 0h10.983v10.983h-10.983zm16.687 0h10.983v10.983H288.1zm16.687 0h10.983v10.983h-10.983z"/><path style="fill:#405a6b" d="M121.243 351.177h10.983v10.983h-10.983zm16.688 0h10.983v10.983h-10.983zm16.687 0h10.983v10.983h-10.983zm16.687 0h10.983v10.983h-10.983zm16.688 0h10.983v10.983h-10.983zm16.67 0h10.983v10.983h-10.983z"/><path style="fill:#38505e" d="M221.368 351.177h10.983v10.983h-10.983zm16.687 0h10.983v10.983h-10.983zm16.67 0h10.983v10.983h-10.983zm16.688 0h10.983v10.983h-10.983zm16.687 0h10.983v10.983H288.1zm16.687 0h10.983v10.983h-10.983z"/><path style="fill:#405a6b" d="M121.243 366.606h10.983v10.983h-10.983zm16.688 0h10.983v10.983h-10.983zm16.687 0h10.983v10.983h-10.983zm16.687 0h94.418v10.983h-94.418z"/><path style="fill:#38505e" d="M218.575 366.606h47.137v10.981h-47.137zm52.838 0h10.983v10.983h-10.983zm16.687 0h10.983v10.983H288.1zm16.687 0h10.983v10.983h-10.983z"/></svg>