<svg xmlns="http://www.w3.org/2000/svg" viewBox="0 0 512 512"><circle cx="256" cy="256" r="256" fill="#cfdbe6"/><path d="M504.084 319.391L288.597 103.903l-18.837 25.484-51.657 44.987 34.952 34.952v155.198L227.55 378.13l-31.594-31.594-27.569 27.569 23.205 23.205-49.371 26.34 86.954 86.954A259.213 259.213 0 00256 512c119.505 0 219.877-81.887 248.084-192.609z" fill="#b8c9d9"/><path fill="#2b3b4e" d="M240.485 167.029h31.03v200.352h-31.03z"/><path fill="#1b2835" d="M255.431 167.029h16.089v200.352h-16.089z"/><circle cx="256" cy="141.791" r="49.993" fill="#fc6f58"/><path d="M256 91.798c-.193 0-.383.012-.574.014v99.957c.191.002.381.014.574.014 27.61 0 49.993-22.383 49.993-49.993 0-27.609-22.383-49.992-49.993-49.992z" fill="#f1543f"/><path fill="#324a5e" d="M199.111 331.852h113.778v41.374H199.111z"/><path fill="#2b3b4e" d="M255.431 331.852h57.458v41.374h-57.458z"/><path fill="#fc6f58" d="M146.101 346.54h49.857v24.928h-49.857z"/><path fill="#f1543f" d="M316.906 346.54h49.857v24.928h-49.857z"/><path fill="#2b3b4e" d="M142.222 366.761h227.556v56.889H142.222z"/><path fill="#1b2835" d="M255.431 366.761h114.347v56.889H255.431z"/></svg>