<svg xmlns="http://www.w3.org/2000/svg" viewBox="0 0 512 512"><circle cx="256" cy="256" r="256" fill="#fc6f58"/><path d="M508.792 296.541L364.73 152.479 193.236 292.647l-82.342 78.545 140.753 140.753c1.45.024 2.898.055 4.353.055 127.588 0 233.36-93.341 252.792-215.459z" fill="#f1543f"/><path d="M284.379 300.163c27.944 13.584 66.332 76.671 97.24 74.611 30.908-2.06 31.925-167.983-10.314-215.673s-93.803-2.72-93.803-2.72h-55.58s-51.564-44.972-93.803 2.72-41.22 213.613-10.314 215.673c30.906 2.06 69.296-61.026 97.24-74.611h69.334z" fill="#e6f3ff"/><path d="M371.305 159.101c-42.237-47.69-93.801-2.72-93.801-2.72h-27.248v143.782h34.125c27.945 13.584 66.332 76.671 97.24 74.611 30.906-2.06 31.923-167.981-10.316-215.673z" fill="#cfdbe6"/><g fill="#b8c9d9"><circle cx="205.317" cy="256" r="27.789"/><circle cx="158.53" cy="183.613" r="20.475"/></g><circle cx="279.169" cy="256" r="20.475" fill="#a9bbc9"/><circle cx="335.489" cy="181.82" r="10.636" fill="#4cdbc4"/><circle cx="335.489" cy="219.039" r="10.636" fill="#a9bbc9"/><circle cx="354.09" cy="200.421" r="10.636" fill="#fd8469"/><circle cx="316.871" cy="200.421" r="10.636" fill="#ff80aa"/></svg>