<svg xmlns="http://www.w3.org/2000/svg" viewBox="0 0 512 512"><circle cx="256" cy="256" r="256" fill="#324a5e"/><path d="M437.019 437.019c46.223-46.223 71.058-105.727 74.538-166.229L371.198 130.431 208.689 329.363l-68.946 34.868 146.034 146.034c55.268-6.436 108.842-30.845 151.242-73.246z" fill="#2b3b4e"/><path d="M358.493 248.242H153.507c-10.993 0-19.904-8.911-19.904-19.904v-82.589c0-10.993 8.911-19.904 19.904-19.904h204.984c10.993 0 19.904 8.911 19.904 19.904v82.587c.002 10.996-8.909 19.906-19.902 19.906z" fill="#e6f3ff"/><g fill="#cfdbe6"><path d="M358.493 125.845H257.15v122.397h101.343c10.993 0 19.904-8.911 19.904-19.904v-82.589c0-10.993-8.911-19.904-19.904-19.904z"/><path d="M358.493 369.778H153.507c-10.993 0-19.904-8.911-19.904-19.904v-82.587c0-10.993 8.911-19.904 19.904-19.904h204.984c10.993 0 19.904 8.911 19.904 19.904v82.587c.002 10.993-8.909 19.904-19.902 19.904z"/></g><path d="M358.493 247.38H257.15v122.397h101.343c10.993 0 19.904-8.911 19.904-19.904v-82.587c0-10.995-8.911-19.906-19.904-19.906z" fill="#b8c9d9"/><path d="M320.719 235.313H191.283a7.685 7.685 0 0 1-7.685-7.685v-81.167a7.685 7.685 0 0 1 7.685-7.685h129.436a7.685 7.685 0 0 1 7.685 7.685v81.167a7.685 7.685 0 0 1-7.685 7.685z" fill="#6e8391"/><path d="M320.719 138.774H257.15v96.539h63.569a7.685 7.685 0 0 0 7.685-7.685v-81.167a7.686 7.686 0 0 0-7.685-7.687z" fill="#586c77"/><path d="M320.719 356.848H191.283a7.685 7.685 0 0 1-7.685-7.685v-81.167a7.685 7.685 0 0 1 7.685-7.685h129.436a7.685 7.685 0 0 1 7.685 7.685v81.167a7.685 7.685 0 0 1-7.685 7.685z" fill="#6e8391"/><path d="M320.719 260.31H257.15v96.539h63.569a7.685 7.685 0 0 0 7.685-7.685v-81.167a7.686 7.686 0 0 0-7.685-7.687z" fill="#586c77"/><path d="M173.663 298.027h-5.418a3.038 3.038 0 0 1-3.038-3.038v-5.418a3.038 3.038 0 0 0-3.038-3.038h-5.418a3.038 3.038 0 0 0-3.038 3.038v5.418a3.038 3.038 0 0 1-3.038 3.038h-5.418a3.038 3.038 0 0 0-3.038 3.038v5.418a3.038 3.038 0 0 0 3.038 3.038h5.418a3.038 3.038 0 0 1 3.038 3.038v5.418a3.038 3.038 0 0 0 3.038 3.038h5.418a3.038 3.038 0 0 0 3.038-3.038v-5.418a3.038 3.038 0 0 1 3.038-3.038h5.418a3.038 3.038 0 0 0 3.038-3.038v-5.418a3.038 3.038 0 0 0-3.038-3.038z" fill="#9badbc"/><circle cx="352.539" cy="289.599" r="5.956" fill="#4cdbc4"/><circle cx="352.539" cy="310.441" r="5.956" fill="#e6f3ff"/><g fill="#b8c9d9"><circle cx="341.023" cy="185.734" r="3.574"/><circle cx="355.797" cy="185.734" r="3.574"/><circle cx="363.192" cy="185.734" r="3.574"/><circle cx="348.419" cy="185.734" r="3.574"/><circle cx="341.023" cy="195.25" r="3.574"/><circle cx="355.797" cy="195.25" r="3.574"/><circle cx="363.192" cy="195.25" r="3.574"/><circle cx="348.419" cy="195.25" r="3.574"/><circle cx="148.377" cy="185.734" r="3.574"/><circle cx="163.15" cy="185.734" r="3.574"/><circle cx="170.546" cy="185.734" r="3.574"/><circle cx="155.772" cy="185.734" r="3.574"/><circle cx="148.377" cy="195.25" r="3.574"/><circle cx="163.15" cy="195.25" r="3.574"/><circle cx="170.546" cy="195.25" r="3.574"/><circle cx="155.772" cy="195.25" r="3.574"/></g><circle cx="362.951" cy="300.029" r="5.954" fill="#fd8469"/><circle cx="342.126" cy="300.029" r="5.954" fill="#ff80aa"/></svg>