<svg xmlns="http://www.w3.org/2000/svg" viewBox="0 0 512 512" style="enable-background:new 0 0 512 512" xml:space="preserve"><circle style="fill:#324a5e" cx="256" cy="256" r="256"/><path style="fill:#2b3b4e" d="M437.019 437.019c43.723-43.723 68.324-99.328 73.802-156.42L335.119 104.894l-77.933 165.723-79.389 151.578 89.667 89.541c61.643-2.746 122.485-27.646 169.555-74.717z"/><path style="fill:#e6f3ff" d="M317.271 429.253h-122.54c-13.291 0-24.064-10.773-24.064-24.062V121.034c0-13.29 10.773-24.062 24.062-24.062h122.54c13.29 0 24.062 10.773 24.062 24.062V405.19c.002 13.29-10.77 24.063-24.06 24.063z"/><path style="fill:#cfdbe6" d="M317.271 96.97h-60.695v332.283h60.695c13.29 0 24.062-10.774 24.062-24.062V121.034c0-13.29-10.772-24.064-24.062-24.064z"/><path style="fill:#4cdbc4" d="M204.283 126.707h103.434V256H204.283z"/><path style="fill:#1ea8a4" d="M256.569 126.707h51.141V256h-51.141z"/><path style="fill:#9badbc" d="M243.128 352.251h-7.585a4.253 4.253 0 0 1-4.253-4.253v-7.585a4.253 4.253 0 0 0-4.253-4.253h-7.585a4.253 4.253 0 0 0-4.253 4.253v7.585a4.253 4.253 0 0 1-4.253 4.253h-7.585a4.253 4.253 0 0 0-4.253 4.253v7.585a4.253 4.253 0 0 0 4.253 4.253h7.585a4.253 4.253 0 0 1 4.253 4.253v7.585a4.253 4.253 0 0 0 4.253 4.253h7.585a4.253 4.253 0 0 0 4.253-4.253v-7.585a4.253 4.253 0 0 1 4.253-4.253h7.585a4.253 4.253 0 0 0 4.253-4.253v-7.585a4.254 4.254 0 0 0-4.253-4.253z"/><path style="fill:#cfdbe6" d="M170.667 277.118h170.667v28.444H170.667z"/><path style="fill:#b8c9d9" d="M256.569 277.118h84.764v28.444h-84.764z"/><circle style="fill:#31bafd" cx="292.202" cy="358.572" r="20.687"/></svg>