<svg xmlns="http://www.w3.org/2000/svg" viewBox="0 0 512 512"><circle cx="256" cy="256" r="256" fill="#324a5e"/><path d="M504.18 318.998L328.204 143.022 216.023 277.507 157.737 383.36 284.76 510.383c106.734-11.935 193.631-89.479 219.42-191.385z" fill="#2b3b4e"/><path d="M354.263 383.36L329.7 363.51l-24.562 19.851-24.554-19.851-24.56 19.851-24.569-19.851-24.56 19.851-24.578-19.851-24.579 19.851V209.663c0-54.269 43.994-98.263 98.263-98.263 54.269 0 98.263 43.994 98.263 98.263V383.36z" fill="#ff80aa"/><path d="M256.288 111.407v271.739l24.297-19.637 24.554 19.851 24.561-19.85 24.562 19.851V209.663c.001-54.172-43.838-98.099-97.974-98.256z" fill="#fd5790"/><path d="M217.864 243.35h-3.131c-10.099 0-18.285-8.187-18.285-18.285v-30.803c0-10.099 8.187-18.285 18.285-18.285h3.131c10.099 0 18.285 8.187 18.285 18.285v30.803c0 10.098-8.187 18.285-18.285 18.285z" fill="#fff"/><circle cx="222.918" cy="215.678" r="13.234" fill="#31bafd"/><path d="M297.267 243.35h-3.131c-10.099 0-18.285-8.187-18.285-18.285v-30.803c0-10.099 8.187-18.285 18.285-18.285h3.131c10.099 0 18.285 8.187 18.285 18.285v30.803c0 10.098-8.185 18.285-18.285 18.285z" fill="#e6f3ff"/><circle cx="302.321" cy="215.678" r="13.234" fill="#2b9ed8"/></svg>