<svg xmlns="http://www.w3.org/2000/svg" viewBox="0 0 512 512"><circle cx="256" cy="256" r="256" fill="#fc6f58"/><path d="M508.65 297.405L401.094 189.847l-26.871 8.539L260.237 87.545l-8.654 106.932-85.152 69.93-59.518 92.972 154.552 154.552c124.831-2.615 227.676-94.58 247.185-214.526z" fill="#f1543f"/><path d="M256 199.111a5.171 5.171 0 0 1-5.172-5.172V90.505A5.171 5.171 0 0 1 256 85.333a5.171 5.171 0 0 1 5.172 5.172v103.434a5.173 5.173 0 0 1-5.172 5.172z" fill="#fff"/><path d="M256 85.333c-.197 0-.383.036-.574.059v113.662c.191.021.378.059.574.059a5.171 5.171 0 0 0 5.172-5.172V90.507A5.174 5.174 0 0 0 256 85.333z" fill="#e6f3ff"/><path d="M277.261 199.111h-42.524a7.183 7.183 0 0 1-7.184-7.182V177.85a7.182 7.182 0 0 1 7.184-7.182h42.524a7.183 7.183 0 0 1 7.184 7.182v14.079a7.184 7.184 0 0 1-7.184 7.182z" fill="#808183"/><path d="M277.261 170.667h-21.837v28.444h21.837a7.184 7.184 0 0 0 7.184-7.184v-14.079a7.184 7.184 0 0 0-7.184-7.181z" fill="#59595b"/><path d="M343.414 225.742V192.3h-174.83v33.442l-67.736-8.466v126.147c0 13.093 14.152 23.705 31.608 23.705 11.343 0 21.816-4.558 27.443-11.945l67.015-87.957h58.17l67.015 87.957c5.627 7.387 16.101 11.945 27.443 11.945 17.456 0 31.608-10.614 31.608-23.705V217.276l-67.736 8.466z" fill="#cfdbe6"/><path d="M343.414 225.742V192.3h-87.988v74.926h29.658l67.015 87.957c5.627 7.385 16.101 11.945 27.443 11.945 17.456 0 31.608-10.614 31.608-23.705V217.276l-67.736 8.466z" fill="#b8c9d9"/><circle cx="171.942" cy="226.314" r="71.094" fill="#e6f3ff"/><circle cx="340.058" cy="226.314" r="71.094" fill="#cfdbe6"/><path d="M199.601 215.119h-10.552a5.915 5.915 0 0 1-5.915-5.915v-10.552a5.915 5.915 0 0 0-5.915-5.915h-10.552a5.915 5.915 0 0 0-5.915 5.915v10.552a5.915 5.915 0 0 1-5.915 5.915h-10.552a5.915 5.915 0 0 0-5.915 5.915v10.552a5.915 5.915 0 0 0 5.915 5.915h10.552a5.915 5.915 0 0 1 5.915 5.915v10.552a5.915 5.915 0 0 0 5.915 5.915h10.552a5.915 5.915 0 0 0 5.915-5.915v-10.552a5.915 5.915 0 0 1 5.915-5.915h10.552a5.915 5.915 0 0 0 5.915-5.915v-10.552a5.916 5.916 0 0 0-5.915-5.915z" fill="#b8c9d9"/><circle cx="358.072" cy="208.282" r="14.564" fill="#4cdbc4"/><circle cx="322.043" cy="244.329" r="14.564" fill="#b8c9d9"/><circle cx="358.072" cy="244.329" r="14.564" fill="#fd8469"/><circle cx="322.043" cy="208.282" r="14.564" fill="#ff80aa"/></svg>