<svg xmlns="http://www.w3.org/2000/svg" viewBox="0 0 512 512"><circle cx="256" cy="256" r="256" fill="#4cdbc4"/><path d="M510.249 285.939l-99.887-100.943-176.197 82.496-129.257 62.743 179.216 180.221c118.306-12.93 212.369-106.459 226.125-224.517z" fill="#1ea8a4"/><path d="M367.176 345.643H144.825c-32.856 0-59.49-26.634-59.49-59.49v-60.306c-.002-32.856 26.634-59.49 59.49-59.49h222.353c32.856 0 59.49 26.634 59.49 59.49v60.306c-.001 32.856-26.636 59.49-59.492 59.49z" fill="#324a5e"/><path d="M367.176 166.357h-111.75v179.286h111.75c32.856 0 59.49-26.634 59.49-59.49v-60.306c.001-32.856-26.634-59.49-59.49-59.49z" fill="#2b3b4e"/><path fill="#ffd15d" d="M153.428 184.458h205.145v143.084H153.428z"/><path fill="#f9b54c" d="M255.431 184.458h103.146v143.084H255.431z"/><circle cx="392.189" cy="217.643" r="7.209" fill="#4cdbc4"/><circle cx="392.189" cy="242.881" r="7.209" fill="#b8c9d9"/><circle cx="404.808" cy="230.262" r="7.209" fill="#fd8469"/><circle cx="379.57" cy="230.262" r="7.209" fill="#ff80aa"/><path d="M137.157 228.992h-5.96a3.341 3.341 0 0 1-3.341-3.341v-5.96a3.341 3.341 0 0 0-3.341-3.341h-5.96a3.341 3.341 0 0 0-3.341 3.341v5.96a3.341 3.341 0 0 1-3.341 3.341h-5.96a3.341 3.341 0 0 0-3.341 3.341v5.96a3.341 3.341 0 0 0 3.341 3.341h5.96a3.341 3.341 0 0 1 3.341 3.341v5.96a3.341 3.341 0 0 0 3.341 3.341h5.96a3.341 3.341 0 0 0 3.341-3.341v-5.96a3.341 3.341 0 0 1 3.341-3.341h5.96a3.341 3.341 0 0 0 3.341-3.341v-5.96a3.34 3.34 0 0 0-3.341-3.341z" fill="#b8c9d9"/><g fill="#4e6775"><circle cx="128" cy="276.687" r="10.343"/><circle cx="380.121" cy="276.687" r="10.343"/></g><path d="M370.183 166.433c2.682 18.48 18.585 32.678 37.809 32.678h12.326c-9.368-18.58-28.178-31.585-50.135-32.678zm37.809 146.456c-19.223 0-35.126 14.198-37.809 32.678 21.957-1.093 40.767-14.096 50.135-32.678h-12.326z" fill="#324a5e"/><path d="M91.684 199.111h12.326c19.223 0 35.126-14.198 37.809-32.678-21.958 1.093-40.767 14.098-50.135 32.678zm50.135 146.456c-2.682-18.48-18.585-32.678-37.809-32.678H91.684c9.368 18.58 28.177 31.585 50.135 32.678z" fill="#446072"/></svg>