<svg xmlns="http://www.w3.org/2000/svg" viewBox="0 0 512 512" style="enable-background:new 0 0 512 512" xml:space="preserve"><circle style="fill:#fc6f58" cx="256" cy="256" r="256"/><path style="fill:#f1543f" d="M509.073 294.828 334.972 120.727 219.798 306.424l-43.618 83.918 118.72 118.72c110.263-16.809 197.394-103.961 214.173-214.234z"/><path style="fill:#e6f3ff" d="M318.636 398.222H193.365c-12.536 0-22.699-10.162-22.699-22.697V136.476c0-12.536 10.162-22.699 22.699-22.699h125.271c12.535 0 22.697 10.162 22.697 22.699v239.049c0 12.535-10.162 22.697-22.697 22.697z"/><path style="fill:#cfdbe6" d="M318.636 113.778h-60.912v284.444h60.911c12.536 0 22.699-10.162 22.699-22.699V136.476c-.001-12.536-10.163-22.698-22.698-22.698z"/><path style="fill:#324a5e" d="M317.414 247.38H194.586a9.696 9.696 0 0 1-9.697-9.697V143.3a9.696 9.696 0 0 1 9.697-9.697h122.828a9.696 9.696 0 0 1 9.697 9.697v94.384c0 5.356-4.341 9.696-9.697 9.696z"/><path style="fill:#2b3b4e" d="M317.414 133.603h-59.69V247.38h59.69c5.354 0 9.697-4.341 9.697-9.697V143.3a9.696 9.696 0 0 0-9.697-9.697z"/><path style="fill:#4cdbc4" d="M314.93 240.14H197.072a5.716 5.716 0 0 1-5.716-5.716v-87.862a5.718 5.718 0 0 1 5.716-5.718H314.93a5.716 5.716 0 0 1 5.716 5.718v87.862a5.717 5.717 0 0 1-5.716 5.716z"/><path style="fill:#05bea6" d="M314.93 140.843h-57.206v99.297h57.204a5.718 5.718 0 0 0 5.718-5.718v-87.861a5.718 5.718 0 0 0-5.716-5.718z"/><path style="fill:#324a5e" d="M241.811 302.258h-8.399a4.708 4.708 0 0 1-4.708-4.708v-8.399c0-2.6-2.108-4.708-4.708-4.708h-8.399a4.708 4.708 0 0 0-4.708 4.708v8.399c0 2.6-2.108 4.708-4.708 4.708h-8.399a4.708 4.708 0 0 0-4.708 4.708v8.399c0 2.6 2.108 4.708 4.708 4.708h8.399c2.6 0 4.708 2.108 4.708 4.708v8.399c0 2.6 2.108 4.708 4.708 4.708h8.399c2.6 0 4.708-2.108 4.708-4.708v-8.399c0-2.6 2.108-4.708 4.708-4.708h8.399c2.6 0 4.708-2.108 4.708-4.708v-8.399c0-2.6-2.109-4.708-4.708-4.708z"/><circle style="fill:#05bea6" cx="295.65" cy="295.219" r="11.205"/><circle style="fill:#05bea6" cx="295.65" cy="323.663" r="11.205"/></svg>