<svg xmlns="http://www.w3.org/2000/svg" viewBox="0 0 512 512" style="enable-background:new 0 0 512 512" xml:space="preserve"><circle style="fill:#31bafd" cx="256" cy="256" r="256"/><path style="fill:#2b9ed8" d="M508.032 211.07 404.48 107.518l-212.916 227.04-56.327 59.575 117.832 117.832c66.489.757 133.217-24.214 183.949-74.945 61.463-61.464 85.124-146.401 71.014-225.95z"/><path style="fill:#e6f3ff" d="m213.406 333.336-34.742-34.74L369.74 107.52l34.742-.002v34.742z"/><path style="fill:#cfdbe6" d="m196.036 315.966 17.37 17.37L404.482 142.26v-34.74z"/><path style="fill:#935635" d="m145.849 387.849-21.698-21.698 51.417-73.116 43.397 43.397z"/><path style="fill:#804000" d="m135.001 377.001 10.848 10.848 73.116-51.417-21.698-21.697z"/><path style="fill:#ffd15d" d="m224.196 344.126-56.322-56.322a9.306 9.306 0 0 1 0-13.16l4.212-4.211a9.306 9.306 0 0 1 13.16 0l56.322 56.322a9.306 9.306 0 0 1 0 13.16l-4.211 4.211c-3.635 3.634-9.527 3.634-13.161 0z"/><path style="fill:#f9b54c" d="m213.406 298.596-17.37 17.37 28.16 28.16a9.306 9.306 0 0 0 13.16 0l4.211-4.211a9.306 9.306 0 0 0 0-13.16l-28.161-28.159z"/><path style="fill:#ffd15d" d="m143.412 402.306-33.718-33.718a7.423 7.423 0 0 1 0-10.499l6.873-6.873c2.9-2.9 7.599-2.9 10.499 0l33.718 33.718c2.9 2.9 2.9 7.599 0 10.499l-6.873 6.873a7.422 7.422 0 0 1-10.499 0z"/><path style="fill:#f9b54c" d="m143.924 368.078-17.37 17.37 16.858 16.858c2.9 2.9 7.599 2.9 10.499 0l6.873-6.873c2.9-2.9 2.9-7.599 0-10.499l-16.86-16.856z"/><path style="fill:#cfdbe6" d="m333.336 298.596-34.74 34.74L107.52 142.26v-34.74h34.74z"/><path style="fill:#b8c9d9" d="M108.096 107.52h-.576v34.74l191.076 191.076 17.658-17.658z"/><path style="fill:#935635" d="m387.849 366.151-21.698 21.698-73.116-51.417 43.397-43.397z"/><path style="fill:#804000" d="m315.023 314.446-21.988 21.986 73.116 51.417 11.138-11.136z"/><path style="fill:#ffd15d" d="m344.128 287.804-56.322 56.322a9.306 9.306 0 0 1-13.16 0l-4.211-4.211a9.306 9.306 0 0 1 0-13.16l56.322-56.322a9.306 9.306 0 0 1 13.16 0l4.211 4.211c3.634 3.636 3.634 9.526 0 13.16z"/><path style="fill:#f9b54c" d="m298.884 298.308-28.45 28.45a9.306 9.306 0 0 0 0 13.16l4.211 4.211a9.306 9.306 0 0 0 13.16 0l28.45-28.45-17.371-17.371z"/><path style="fill:#ffd15d" d="m402.308 368.59-33.718 33.718a7.423 7.423 0 0 1-10.499 0l-6.873-6.873a7.423 7.423 0 0 1 0-10.499l33.718-33.718c2.9-2.9 7.599-2.9 10.499 0l6.873 6.873a7.426 7.426 0 0 1 0 10.499z"/><path style="fill:#f9b54c" d="m368.366 367.79-17.148 17.148a7.423 7.423 0 0 0 0 10.499l6.873 6.873c2.9 2.9 7.599 2.9 10.499 0l17.148-17.148-17.372-17.372z"/></svg>