<svg xmlns="http://www.w3.org/2000/svg" viewBox="0 0 512 512"><circle cx="256" cy="256" r="256" fill="#31bafd"/><path d="M508.032 211.07L404.48 107.518l-212.916 227.04-56.327 59.575 117.832 117.832c66.489.757 133.217-24.214 183.949-74.945 61.463-61.464 85.124-146.401 71.014-225.95z" fill="#2b9ed8"/><path fill="#e6f3ff" d="M213.406 333.336l-34.742-34.74L369.74 107.52l34.742-.002v34.742z"/><path fill="#cfdbe6" d="M196.036 315.966l17.37 17.37L404.482 142.26v-34.74z"/><path fill="#935635" d="M145.849 387.849l-21.698-21.698 51.417-73.116 43.397 43.397z"/><path fill="#804000" d="M135.001 377.001l10.848 10.848 73.116-51.417-21.698-21.697z"/><path d="M224.196 344.126l-56.322-56.322a9.306 9.306 0 0 1 0-13.16l4.212-4.211a9.306 9.306 0 0 1 13.16 0l56.322 56.322a9.306 9.306 0 0 1 0 13.16l-4.211 4.211c-3.635 3.634-9.527 3.634-13.161 0z" fill="#ffd15d"/><path d="M213.406 298.596l-17.37 17.37 28.16 28.16a9.306 9.306 0 0 0 13.16 0l4.211-4.211a9.306 9.306 0 0 0 0-13.16l-28.161-28.159z" fill="#f9b54c"/><path d="M143.412 402.306l-33.718-33.718a7.423 7.423 0 0 1 0-10.499l6.873-6.873c2.9-2.9 7.599-2.9 10.499 0l33.718 33.718c2.9 2.9 2.9 7.599 0 10.499l-6.873 6.873a7.422 7.422 0 0 1-10.499 0z" fill="#ffd15d"/><path d="M143.924 368.078l-17.37 17.37 16.858 16.858c2.9 2.9 7.599 2.9 10.499 0l6.873-6.873c2.9-2.9 2.9-7.599 0-10.499l-16.86-16.856z" fill="#f9b54c"/><path fill="#cfdbe6" d="M333.336 298.596l-34.74 34.74L107.52 142.26v-34.74h34.74z"/><path fill="#b8c9d9" d="M108.096 107.52h-.576v34.74l191.076 191.076 17.658-17.658z"/><path fill="#935635" d="M387.849 366.151l-21.698 21.698-73.116-51.417 43.397-43.397z"/><path fill="#804000" d="M315.023 314.446l-21.988 21.986 73.116 51.417 11.138-11.136z"/><path d="M344.128 287.804l-56.322 56.322a9.306 9.306 0 0 1-13.16 0l-4.211-4.211a9.306 9.306 0 0 1 0-13.16l56.322-56.322a9.306 9.306 0 0 1 13.16 0l4.211 4.211c3.634 3.636 3.634 9.526 0 13.16z" fill="#ffd15d"/><path d="M298.884 298.308l-28.45 28.45a9.306 9.306 0 0 0 0 13.16l4.211 4.211a9.306 9.306 0 0 0 13.16 0l28.45-28.45-17.371-17.371z" fill="#f9b54c"/><path d="M402.308 368.59l-33.718 33.718a7.423 7.423 0 0 1-10.499 0l-6.873-6.873a7.423 7.423 0 0 1 0-10.499l33.718-33.718c2.9-2.9 7.599-2.9 10.499 0l6.873 6.873a7.426 7.426 0 0 1 0 10.499z" fill="#ffd15d"/><path d="M368.366 367.79l-17.148 17.148a7.423 7.423 0 0 0 0 10.499l6.873 6.873c2.9 2.9 7.599 2.9 10.499 0l17.148-17.148-17.372-17.372z" fill="#f9b54c"/></svg>