<svg xmlns="http://www.w3.org/2000/svg" viewBox="0 0 512 512"><circle cx="256" cy="256" r="256" fill="#324a5e"/><path d="M296.388 508.818c109.035-17.282 195.15-103.395 212.43-212.432L304.93 92.498 201.076 223.453l-45.022 28.898 94.098 94.098-43.079 73.056 89.315 89.313z" fill="#2b3b4e"/><path d="M304.93 92.498l-34.268 114.507c-3.594 12.009 3.229 24.659 15.238 28.253l61.861 18.511c11.316 3.386 14.751 17.734 6.197 25.879L207.07 419.504l34.266-114.507c3.594-12.009-3.229-24.659-15.238-28.253l-61.861-18.511c-11.316-3.386-14.751-17.734-6.197-25.879L304.93 92.498z" fill="#ffd15d"/><path d="M347.762 253.769l-61.861-18.511c-12.009-3.594-18.832-16.243-15.238-28.253l34.268-114.507-48.642 46.313v233.832l97.671-92.994c8.553-8.146 5.117-22.494-6.198-25.88z" fill="#f9b54c"/></svg>