<svg xmlns="http://www.w3.org/2000/svg" viewBox="0 0 512 512"><circle cx="256" cy="256" r="256" fill="#324a5e"/><path d="M474.929 388.758l-151.78-151.78-1.069 1.052-53.436-53.436-137.634 74.847-5.179 67.965L305.605 507.18c71.68-14.076 132.638-58.053 169.324-118.422zm-56.265-151.106l-23.762 27.757-15.605 11.566L480.832 378.51a254.318 254.318 0 0022.481-56.21l-84.649-84.648z" fill="#2b3b4e"/><path d="M268.645 327.406c-39.436 39.436-103.376 39.436-142.814 0s-39.436-103.376 0-142.814 103.376-39.436 142.814 0L197.237 256l71.408 71.406z" fill="#ffd15d"/><path d="M268.645 184.594c-23.05-23.05-54.467-32.603-84.473-28.71v200.232c30.006 3.894 61.424-5.66 84.473-28.71L197.237 256l71.408-71.406z" fill="#f9b54c"/><circle cx="184.889" cy="213.333" r="10.343" fill="#324a5e"/><path d="M184.889 202.99c-.243 0-.481.021-.719.036v20.614c.238.017.476.036.719.036 5.713 0 10.343-4.63 10.343-10.343s-4.63-10.343-10.343-10.343z" fill="#2b3b4e"/><g fill="#b5f1f4"><circle cx="302.752" cy="256" r="27.891"/><circle cx="397.671" cy="256" r="27.891"/></g><path d="M302.761 228.109c15.403 0 27.891 12.486 27.891 27.891s-12.486 27.891-27.891 27.891v-55.782zm94.908 0c15.403 0 27.891 12.486 27.891 27.891s-12.486 27.891-27.891 27.891v-55.782z" fill="#84dbff"/></svg>