<svg xmlns="http://www.w3.org/2000/svg" viewBox="0 0 512.002 512.002"><circle cx="256.001" cy="256" r="256" fill="#fc6f58"/><path d="M503.464 321.739L256.001 74.274l.267 235.261-99.392 117.846 84.173 84.173c4.949.284 9.931.446 14.951.446 118.657 0 218.444-80.732 247.464-190.261z" fill="#f1543f"/><path d="M325.269 374.436H186.734V211.777a164.737 164.737 0 0 1 48.249-116.483l21.018-21.02 21.02 21.02a164.736 164.736 0 0 1 48.249 116.483v162.659z" fill="#e6f3ff"/><path d="M325.269 211.777A164.737 164.737 0 0 0 277.02 95.294L256 74.274l-.572.572v299.587h69.841V211.777z" fill="#cfdbe6"/><path d="M277.02 95.294L256 74.274l-21.02 21.02a164.67 164.67 0 0 0-26.598 34.861h95.237a164.733 164.733 0 0 0-26.599-34.861z" fill="#ffd15d"/><path d="M277.02 95.294L256 74.274l-.572.572v55.308h48.19a164.714 164.714 0 0 0-26.598-34.86z" fill="#f9b54c"/><path d="M302.577 296.012l21.221 10.611a56.67 56.67 0 0 1 31.327 50.688v70.072l-52.548-26.274V296.012z" fill="#2b3b4e"/><g fill="#324a5e"><path d="M209.424 296.012l-21.221 10.611a56.67 56.67 0 0 0-31.327 50.688v70.072l52.548-26.274V296.012z"/><circle cx="256.001" cy="204.059" r="39.41"/></g><path d="M256.001 164.642c-.191 0-.381.012-.572.014v78.793c.191.003.381.014.572.014 21.766 0 39.41-17.644 39.41-39.41s-17.644-39.411-39.41-39.411z" fill="#2b3b4e"/><circle cx="256.001" cy="204.059" r="30.255" fill="#b5f1f4"/><path d="M256.001 173.797c-.193 0-.379.026-.572.029v60.452c.193.003.379.029.572.029 16.71 0 30.255-13.545 30.255-30.255s-13.545-30.255-30.255-30.255z" fill="#84dbff"/></svg>