<?xml version="1.0" encoding="iso-8859-1"?>
<!-- Generator: Adobe Illustrator 19.0.0, SVG Export Plug-In . SVG Version: 6.00 Build 0)  -->
<svg version="1.1" id="Layer_1" xmlns="http://www.w3.org/2000/svg" xmlns:xlink="http://www.w3.org/1999/xlink" x="0px" y="0px"
	 viewBox="0 0 512 512" style="enable-background:new 0 0 512 512;" xml:space="preserve">
<circle style="fill:#324A5E;" cx="256" cy="256" r="256"/>
<path style="fill:#2B3B4E;" d="M437.019,437.019c46.223-46.223,71.058-105.727,74.538-166.229L371.198,130.431L208.689,329.363
	l-68.946,34.868l146.034,146.034C341.045,503.829,394.619,479.42,437.019,437.019z"/>
<path style="fill:#E6F3FF;" d="M358.493,248.242H153.507c-10.993,0-19.904-8.911-19.904-19.904v-82.589
	c0-10.993,8.911-19.904,19.904-19.904h204.984c10.993,0,19.904,8.911,19.904,19.904v82.587
	C378.397,239.332,369.486,248.242,358.493,248.242z"/>
<g>
	<path style="fill:#CFDBE6;" d="M358.493,125.845H257.15v122.397h101.343c10.993,0,19.904-8.911,19.904-19.904v-82.589
		C378.397,134.756,369.486,125.845,358.493,125.845z"/>
	<path style="fill:#CFDBE6;" d="M358.493,369.778H153.507c-10.993,0-19.904-8.911-19.904-19.904v-82.587
		c0-10.993,8.911-19.904,19.904-19.904h204.984c10.993,0,19.904,8.911,19.904,19.904v82.587
		C378.397,360.867,369.486,369.778,358.493,369.778z"/>
</g>
<path style="fill:#B8C9D9;" d="M358.493,247.38H257.15v122.397h101.343c10.993,0,19.904-8.911,19.904-19.904v-82.587
	C378.397,256.291,369.486,247.38,358.493,247.38z"/>
<path style="fill:#6E8391;" d="M320.719,235.313H191.283c-4.244,0-7.685-3.441-7.685-7.685v-81.167c0-4.244,3.441-7.685,7.685-7.685
	h129.436c4.244,0,7.685,3.441,7.685,7.685v81.167C328.404,231.872,324.963,235.313,320.719,235.313z"/>
<path style="fill:#586C77;" d="M320.719,138.774H257.15v96.539h63.569c4.244,0,7.685-3.441,7.685-7.685v-81.167
	C328.404,142.215,324.963,138.774,320.719,138.774z"/>
<path style="fill:#6E8391;" d="M320.719,356.848H191.283c-4.244,0-7.685-3.441-7.685-7.685v-81.167c0-4.244,3.441-7.685,7.685-7.685
	h129.436c4.244,0,7.685,3.441,7.685,7.685v81.167C328.404,353.408,324.963,356.848,320.719,356.848z"/>
<path style="fill:#586C77;" d="M320.719,260.31H257.15v96.539h63.569c4.244,0,7.685-3.441,7.685-7.685v-81.167
	C328.404,263.751,324.963,260.31,320.719,260.31z"/>
<path style="fill:#9BADBC;" d="M173.663,298.027h-5.418c-1.677,0-3.038-1.36-3.038-3.038v-5.418c0-1.677-1.36-3.038-3.038-3.038
	h-5.418c-1.677,0-3.038,1.36-3.038,3.038v5.418c0,1.677-1.36,3.038-3.038,3.038h-5.418c-1.677,0-3.038,1.36-3.038,3.038v5.418
	c0,1.677,1.36,3.038,3.038,3.038h5.418c1.677,0,3.038,1.36,3.038,3.038v5.418c0,1.677,1.36,3.038,3.038,3.038h5.418
	c1.677,0,3.038-1.36,3.038-3.038v-5.418c0-1.677,1.36-3.038,3.038-3.038h5.418c1.677,0,3.038-1.36,3.038-3.038v-5.418
	C176.7,299.386,175.34,298.027,173.663,298.027z"/>
<circle style="fill:#4CDBC4;" cx="352.539" cy="289.599" r="5.956"/>
<circle style="fill:#E6F3FF;" cx="352.539" cy="310.441" r="5.956"/>
<g>
	<circle style="fill:#B8C9D9;" cx="341.023" cy="185.734" r="3.574"/>
	<circle style="fill:#B8C9D9;" cx="355.797" cy="185.734" r="3.574"/>
	<circle style="fill:#B8C9D9;" cx="363.192" cy="185.734" r="3.574"/>
	<circle style="fill:#B8C9D9;" cx="348.419" cy="185.734" r="3.574"/>
	<circle style="fill:#B8C9D9;" cx="341.023" cy="195.25" r="3.574"/>
	<circle style="fill:#B8C9D9;" cx="355.797" cy="195.25" r="3.574"/>
	<circle style="fill:#B8C9D9;" cx="363.192" cy="195.25" r="3.574"/>
	<circle style="fill:#B8C9D9;" cx="348.419" cy="195.25" r="3.574"/>
	<circle style="fill:#B8C9D9;" cx="148.377" cy="185.734" r="3.574"/>
	<circle style="fill:#B8C9D9;" cx="163.15" cy="185.734" r="3.574"/>
	<circle style="fill:#B8C9D9;" cx="170.546" cy="185.734" r="3.574"/>
	<circle style="fill:#B8C9D9;" cx="155.772" cy="185.734" r="3.574"/>
	<circle style="fill:#B8C9D9;" cx="148.377" cy="195.25" r="3.574"/>
	<circle style="fill:#B8C9D9;" cx="163.15" cy="195.25" r="3.574"/>
	<circle style="fill:#B8C9D9;" cx="170.546" cy="195.25" r="3.574"/>
	<circle style="fill:#B8C9D9;" cx="155.772" cy="195.25" r="3.574"/>
</g>
<circle style="fill:#FD8469;" cx="362.951" cy="300.029" r="5.954"/>
<circle style="fill:#FF80AA;" cx="342.126" cy="300.029" r="5.954"/>
<g>
</g>
<g>
</g>
<g>
</g>
<g>
</g>
<g>
</g>
<g>
</g>
<g>
</g>
<g>
</g>
<g>
</g>
<g>
</g>
<g>
</g>
<g>
</g>
<g>
</g>
<g>
</g>
<g>
</g>
</svg>
