<?xml version="1.0" encoding="iso-8859-1"?>
<!-- Generator: Adobe Illustrator 19.0.0, SVG Export Plug-In . SVG Version: 6.00 Build 0)  -->
<svg version="1.1" id="Layer_1" xmlns="http://www.w3.org/2000/svg" xmlns:xlink="http://www.w3.org/1999/xlink" x="0px" y="0px"
	 viewBox="0 0 512 512" style="enable-background:new 0 0 512 512;" xml:space="preserve">
<circle style="fill:#4CDBC4;" cx="256" cy="256" r="256"/>
<path style="fill:#1EA8A4;" d="M510.249,285.939l-99.887-100.943l-176.197,82.496l-129.257,62.743l179.216,180.221
	C402.43,497.526,496.493,403.997,510.249,285.939z"/>
<path style="fill:#324A5E;" d="M367.176,345.643H144.825c-32.856,0-59.49-26.634-59.49-59.49v-60.306
	c-0.002-32.856,26.634-59.49,59.49-59.49h222.353c32.856,0,59.49,26.634,59.49,59.49v60.306
	C426.667,319.009,400.032,345.643,367.176,345.643z"/>
<path style="fill:#2B3B4E;" d="M367.176,166.357h-111.75v179.286h111.75c32.856,0,59.49-26.634,59.49-59.49v-60.306
	C426.667,192.991,400.032,166.357,367.176,166.357z"/>
<rect x="153.428" y="184.458" style="fill:#FFD15D;" width="205.145" height="143.084"/>
<rect x="255.431" y="184.458" style="fill:#F9B54C;" width="103.146" height="143.084"/>
<circle style="fill:#4CDBC4;" cx="392.189" cy="217.643" r="7.209"/>
<circle style="fill:#B8C9D9;" cx="392.189" cy="242.881" r="7.209"/>
<circle style="fill:#FD8469;" cx="404.808" cy="230.262" r="7.209"/>
<circle style="fill:#FF80AA;" cx="379.57" cy="230.262" r="7.209"/>
<path style="fill:#B8C9D9;" d="M137.157,228.992h-5.96c-1.845,0-3.341-1.496-3.341-3.341v-5.96c0-1.845-1.496-3.341-3.341-3.341
	h-5.96c-1.845,0-3.341,1.496-3.341,3.341v5.96c0,1.845-1.496,3.341-3.341,3.341h-5.96c-1.845,0-3.341,1.496-3.341,3.341v5.96
	c0,1.845,1.496,3.341,3.341,3.341h5.96c1.845,0,3.341,1.496,3.341,3.341v5.96c0,1.845,1.496,3.341,3.341,3.341h5.96
	c1.845,0,3.341-1.496,3.341-3.341v-5.96c0-1.845,1.496-3.341,3.341-3.341h5.96c1.845,0,3.341-1.496,3.341-3.341v-5.96
	C140.498,230.488,139.004,228.992,137.157,228.992z"/>
<g>
	<circle style="fill:#4E6775;" cx="128" cy="276.687" r="10.343"/>
	<circle style="fill:#4E6775;" cx="380.121" cy="276.687" r="10.343"/>
</g>
<g>
	<path style="fill:#324A5E;" d="M370.183,166.433c2.682,18.48,18.585,32.678,37.809,32.678h12.326
		C410.95,180.531,392.14,167.526,370.183,166.433z"/>
	<path style="fill:#324A5E;" d="M407.992,312.889c-19.223,0-35.126,14.198-37.809,32.678c21.957-1.093,40.767-14.096,50.135-32.678
		H407.992z"/>
</g>
<g>
	<path style="fill:#446072;" d="M91.684,199.111h12.326c19.223,0,35.126-14.198,37.809-32.678
		C119.861,167.526,101.052,180.531,91.684,199.111z"/>
	<path style="fill:#446072;" d="M141.819,345.567c-2.682-18.48-18.585-32.678-37.809-32.678H91.684
		C101.052,331.469,119.861,344.474,141.819,345.567z"/>
</g>
<g>
</g>
<g>
</g>
<g>
</g>
<g>
</g>
<g>
</g>
<g>
</g>
<g>
</g>
<g>
</g>
<g>
</g>
<g>
</g>
<g>
</g>
<g>
</g>
<g>
</g>
<g>
</g>
<g>
</g>
</svg>
