<?xml version="1.0" encoding="iso-8859-1"?>
<!-- Generator: Adobe Illustrator 19.0.0, SVG Export Plug-In . SVG Version: 6.00 Build 0)  -->
<svg version="1.1" id="Layer_1" xmlns="http://www.w3.org/2000/svg" xmlns:xlink="http://www.w3.org/1999/xlink" x="0px" y="0px"
	 viewBox="0 0 512 512" style="enable-background:new 0 0 512 512;" xml:space="preserve">
<circle style="fill:#CFDBE6;" cx="256" cy="256" r="256"/>
<path style="fill:#B8C9D9;" d="M504.084,319.391L288.597,103.903l-18.837,25.484l-51.657,44.987l34.952,34.952v155.198
	L227.55,378.13l-31.594-31.594l-27.569,27.569l23.205,23.205l-49.371,26.34l86.954,86.954C237.992,511.521,246.939,512,256,512
	C375.505,512,475.877,430.113,504.084,319.391z"/>
<rect x="240.485" y="167.029" style="fill:#2B3B4E;" width="31.03" height="200.352"/>
<rect x="255.431" y="167.029" style="fill:#1B2835;" width="16.089" height="200.352"/>
<circle style="fill:#FC6F58;" cx="256" cy="141.791" r="49.993"/>
<path style="fill:#F1543F;" d="M256,91.798c-0.193,0-0.383,0.012-0.574,0.014v99.957c0.191,0.002,0.381,0.014,0.574,0.014
	c27.61,0,49.993-22.383,49.993-49.993C305.993,114.181,283.61,91.798,256,91.798z"/>
<rect x="199.111" y="331.852" style="fill:#324A5E;" width="113.778" height="41.374"/>
<rect x="255.431" y="331.852" style="fill:#2B3B4E;" width="57.458" height="41.374"/>
<rect x="146.101" y="346.54" style="fill:#FC6F58;" width="49.857" height="24.928"/>
<rect x="316.906" y="346.54" style="fill:#F1543F;" width="49.857" height="24.928"/>
<rect x="142.222" y="366.761" style="fill:#2B3B4E;" width="227.556" height="56.889"/>
<rect x="255.431" y="366.761" style="fill:#1B2835;" width="114.347" height="56.889"/>
<g>
</g>
<g>
</g>
<g>
</g>
<g>
</g>
<g>
</g>
<g>
</g>
<g>
</g>
<g>
</g>
<g>
</g>
<g>
</g>
<g>
</g>
<g>
</g>
<g>
</g>
<g>
</g>
<g>
</g>
</svg>
