<?xml version="1.0" encoding="iso-8859-1"?>
<!-- Generator: Adobe Illustrator 19.0.0, SVG Export Plug-In . SVG Version: 6.00 Build 0)  -->
<svg version="1.1" id="Layer_1" xmlns="http://www.w3.org/2000/svg" xmlns:xlink="http://www.w3.org/1999/xlink" x="0px" y="0px"
	 viewBox="0 0 512 512" style="enable-background:new 0 0 512 512;" xml:space="preserve">
<circle style="fill:#FC6F58;" cx="256" cy="256" r="256"/>
<path style="fill:#F1543F;" d="M509.073,294.828L334.972,120.727L219.798,306.424l-43.618,83.918l118.72,118.72
	C405.163,492.253,492.294,405.101,509.073,294.828z"/>
<path style="fill:#E6F3FF;" d="M318.636,398.222H193.365c-12.536,0-22.699-10.162-22.699-22.697V136.476
	c0-12.536,10.162-22.699,22.699-22.699h125.271c12.535,0,22.697,10.162,22.697,22.699v239.049
	C341.333,388.06,331.171,398.222,318.636,398.222z"/>
<path style="fill:#CFDBE6;" d="M318.636,113.778h-60.912v284.444h60.911c12.536,0,22.699-10.162,22.699-22.699V136.476
	C341.333,123.94,331.171,113.778,318.636,113.778z"/>
<path style="fill:#324A5E;" d="M317.414,247.38H194.586c-5.356,0-9.697-4.341-9.697-9.697V143.3c0-5.356,4.341-9.697,9.697-9.697
	h122.828c5.356,0,9.697,4.341,9.697,9.697v94.384C327.111,243.04,322.77,247.38,317.414,247.38z"/>
<path style="fill:#2B3B4E;" d="M317.414,133.603h-59.69V247.38h59.69c5.354,0,9.697-4.341,9.697-9.697V143.3
	C327.111,137.943,322.77,133.603,317.414,133.603z"/>
<path style="fill:#4CDBC4;" d="M314.93,240.14H197.072c-3.158,0-5.716-2.56-5.716-5.716v-87.862c0-3.158,2.56-5.718,5.716-5.718
	H314.93c3.158,0,5.716,2.56,5.716,5.718v87.862C320.646,237.58,318.086,240.14,314.93,240.14z"/>
<path style="fill:#05BEA6;" d="M314.93,140.843h-57.206v99.297h57.204c3.158,0,5.718-2.56,5.718-5.718v-87.861
	C320.646,143.403,318.086,140.843,314.93,140.843z"/>
<path style="fill:#324A5E;" d="M241.811,302.258h-8.399c-2.6,0-4.708-2.108-4.708-4.708v-8.399c0-2.6-2.108-4.708-4.708-4.708
	h-8.399c-2.6,0-4.708,2.108-4.708,4.708v8.399c0,2.6-2.108,4.708-4.708,4.708h-8.399c-2.6,0-4.708,2.108-4.708,4.708v8.399
	c0,2.6,2.108,4.708,4.708,4.708h8.399c2.6,0,4.708,2.108,4.708,4.708v8.399c0,2.6,2.108,4.708,4.708,4.708h8.399
	c2.6,0,4.708-2.108,4.708-4.708v-8.399c0-2.6,2.108-4.708,4.708-4.708h8.399c2.6,0,4.708-2.108,4.708-4.708v-8.399
	C246.519,304.366,244.41,302.258,241.811,302.258z"/>
<g>
	<circle style="fill:#05BEA6;" cx="295.65" cy="295.219" r="11.205"/>
	<circle style="fill:#05BEA6;" cx="295.65" cy="323.663" r="11.205"/>
</g>
<g>
</g>
<g>
</g>
<g>
</g>
<g>
</g>
<g>
</g>
<g>
</g>
<g>
</g>
<g>
</g>
<g>
</g>
<g>
</g>
<g>
</g>
<g>
</g>
<g>
</g>
<g>
</g>
<g>
</g>
</svg>
