<?xml version="1.0" encoding="iso-8859-1"?>
<!-- Generator: Adobe Illustrator 19.0.0, SVG Export Plug-In . SVG Version: 6.00 Build 0)  -->
<svg version="1.1" id="Layer_1" xmlns="http://www.w3.org/2000/svg" xmlns:xlink="http://www.w3.org/1999/xlink" x="0px" y="0px"
	 viewBox="0 0 512 512" style="enable-background:new 0 0 512 512;" xml:space="preserve">
<circle style="fill:#324A5E;" cx="256" cy="256" r="256"/>
<path style="fill:#2B3B4E;" d="M437.019,437.019c43.723-43.723,68.324-99.328,73.802-156.42L335.119,104.894l-77.933,165.723
	l-79.389,151.578l89.667,89.541C329.107,508.99,389.949,484.09,437.019,437.019z"/>
<path style="fill:#E6F3FF;" d="M317.271,429.253h-122.54c-13.291,0-24.064-10.773-24.064-24.062V121.034
	c0-13.29,10.773-24.062,24.062-24.062h122.54c13.29,0,24.062,10.773,24.062,24.062V405.19
	C341.333,418.48,330.561,429.253,317.271,429.253z"/>
<path style="fill:#CFDBE6;" d="M317.271,96.97h-60.695v332.283h60.695c13.29,0,24.062-10.774,24.062-24.062V121.034
	C341.333,107.744,330.561,96.97,317.271,96.97z"/>
<rect x="204.283" y="126.707" style="fill:#4CDBC4;" width="103.434" height="129.293"/>
<rect x="256.569" y="126.707" style="fill:#1EA8A4;" width="51.141" height="129.293"/>
<path style="fill:#9BADBC;" d="M243.128,352.251h-7.585c-2.348,0-4.253-1.903-4.253-4.253v-7.585c0-2.348-1.903-4.253-4.253-4.253
	h-7.585c-2.348,0-4.253,1.903-4.253,4.253v7.585c0,2.348-1.903,4.253-4.253,4.253h-7.585c-2.348,0-4.253,1.903-4.253,4.253v7.585
	c0,2.348,1.903,4.253,4.253,4.253h7.585c2.348,0,4.253,1.903,4.253,4.253v7.585c0,2.348,1.903,4.253,4.253,4.253h7.585
	c2.348,0,4.253-1.903,4.253-4.253v-7.585c0-2.348,1.903-4.253,4.253-4.253h7.585c2.348,0,4.253-1.903,4.253-4.253v-7.585
	C247.38,354.156,245.477,352.251,243.128,352.251z"/>
<rect x="170.667" y="277.118" style="fill:#CFDBE6;" width="170.667" height="28.444"/>
<rect x="256.569" y="277.118" style="fill:#B8C9D9;" width="84.764" height="28.444"/>
<circle style="fill:#31BAFD;" cx="292.202" cy="358.572" r="20.687"/>
<g>
</g>
<g>
</g>
<g>
</g>
<g>
</g>
<g>
</g>
<g>
</g>
<g>
</g>
<g>
</g>
<g>
</g>
<g>
</g>
<g>
</g>
<g>
</g>
<g>
</g>
<g>
</g>
<g>
</g>
</svg>
