<?xml version="1.0" encoding="iso-8859-1"?>
<!-- Generator: Adobe Illustrator 19.0.0, SVG Export Plug-In . SVG Version: 6.00 Build 0)  -->
<svg version="1.1" id="Layer_1" xmlns="http://www.w3.org/2000/svg" xmlns:xlink="http://www.w3.org/1999/xlink" x="0px" y="0px"
	 viewBox="0 0 512 512" style="enable-background:new 0 0 512 512;" xml:space="preserve">
<circle style="fill:#31BAFD;" cx="256" cy="256" r="256"/>
<path style="fill:#2B9ED8;" d="M508.032,211.07L404.48,107.518l-212.916,227.04l-56.327,59.575l117.832,117.832
	c66.489,0.757,133.217-24.214,183.949-74.945C498.481,375.556,522.142,290.619,508.032,211.07z"/>
<polygon style="fill:#E6F3FF;" points="213.406,333.336 178.664,298.596 369.74,107.52 404.482,107.518 404.482,142.26 "/>
<polygon style="fill:#CFDBE6;" points="196.036,315.966 213.406,333.336 404.482,142.26 404.482,107.52 "/>
<polygon style="fill:#935635;" points="145.849,387.849 124.151,366.151 175.568,293.035 218.965,336.432 "/>
<polygon style="fill:#804000;" points="135.001,377.001 145.849,387.849 218.965,336.432 197.267,314.735 "/>
<path style="fill:#FFD15D;" d="M224.196,344.126l-56.322-56.322c-3.634-3.634-3.634-9.526,0-13.16l4.212-4.211
	c3.634-3.634,9.526-3.634,13.16,0l56.322,56.322c3.634,3.634,3.634,9.526,0,13.16l-4.211,4.211
	C233.722,347.76,227.83,347.76,224.196,344.126z"/>
<path style="fill:#F9B54C;" d="M213.406,298.596l-17.37,17.37l28.16,28.16c3.634,3.634,9.526,3.634,13.16,0l4.211-4.211
	c3.634-3.634,3.634-9.526,0-13.16L213.406,298.596z"/>
<path style="fill:#FFD15D;" d="M143.412,402.306l-33.718-33.718c-2.9-2.9-2.9-7.599,0-10.499l6.873-6.873
	c2.9-2.9,7.599-2.9,10.499,0l33.718,33.718c2.9,2.9,2.9,7.599,0,10.499l-6.873,6.873
	C151.011,405.206,146.31,405.206,143.412,402.306z"/>
<path style="fill:#F9B54C;" d="M143.924,368.078l-17.37,17.37l16.858,16.858c2.9,2.9,7.599,2.9,10.499,0l6.873-6.873
	c2.9-2.9,2.9-7.599,0-10.499L143.924,368.078z"/>
<polygon style="fill:#CFDBE6;" points="333.336,298.596 298.596,333.336 107.52,142.26 107.52,107.52 142.26,107.52 "/>
<polygon style="fill:#B8C9D9;" points="108.096,107.52 107.52,107.52 107.52,142.26 298.596,333.336 316.254,315.678 "/>
<polygon style="fill:#935635;" points="387.849,366.151 366.151,387.849 293.035,336.432 336.432,293.035 "/>
<polygon style="fill:#804000;" points="315.023,314.446 293.035,336.432 366.151,387.849 377.289,376.713 "/>
<path style="fill:#FFD15D;" d="M344.128,287.804l-56.322,56.322c-3.634,3.634-9.526,3.634-13.16,0l-4.211-4.211
	c-3.634-3.634-3.634-9.526,0-13.16l56.322-56.322c3.634-3.634,9.526-3.634,13.16,0l4.211,4.211
	C347.762,278.28,347.762,284.17,344.128,287.804z"/>
<path style="fill:#F9B54C;" d="M298.884,298.308l-28.45,28.45c-3.634,3.634-3.634,9.526,0,13.16l4.211,4.211
	c3.634,3.634,9.526,3.634,13.16,0l28.45-28.45L298.884,298.308z"/>
<path style="fill:#FFD15D;" d="M402.308,368.59l-33.718,33.718c-2.9,2.9-7.599,2.9-10.499,0l-6.873-6.873
	c-2.9-2.9-2.9-7.599,0-10.499l33.718-33.718c2.9-2.9,7.599-2.9,10.499,0l6.873,6.873C405.206,360.991,405.206,365.69,402.308,368.59
	z"/>
<path style="fill:#F9B54C;" d="M368.366,367.79l-17.148,17.148c-2.9,2.9-2.9,7.599,0,10.499l6.873,6.873c2.9,2.9,7.599,2.9,10.499,0
	l17.148-17.148L368.366,367.79z"/>
<g>
</g>
<g>
</g>
<g>
</g>
<g>
</g>
<g>
</g>
<g>
</g>
<g>
</g>
<g>
</g>
<g>
</g>
<g>
</g>
<g>
</g>
<g>
</g>
<g>
</g>
<g>
</g>
<g>
</g>
</svg>
